<svg width="80" height="80" viewBox="0 0 80 80" fill="none" xmlns="http://www.w3.org/2000/svg">
<path d="M76.129 18.721H3.87097C1.73645 18.721 0 20.4574 0 22.5919V65.1726C0 67.3071 1.73645 69.0436 3.87097 69.0436H76.129C78.2635 69.0436 80 67.3071 80 65.1726V22.5919C80 20.4574 78.2635 18.721 76.129 18.721Z" fill="#FF4F19"/>
<path d="M43.871 62.5919H36.129V69.0435H43.871V62.5919Z" fill="#E3001E"/>
<path d="M74.8741 58.7209V62.5918C74.8741 63.3044 74.2963 63.8822 73.5837 63.8822H6.48698C5.7744 63.8822 5.19666 63.3044 5.19666 62.5918V58.7209L12.9033 54.8499L43.871 56.1402L69.6775 54.8499L74.8741 58.7209Z" fill="#E6BE8A"/>
<path d="M7.00698 60.5025C17.61 56.1253 29.6012 56.3917 40.0354 61.3016V14.85C29.2572 9.77818 16.8178 9.66124 5.96295 14.499C5.49585 14.7072 5.19666 15.18 5.19666 15.6914V59.3228C5.19666 60.2549 6.14553 60.8582 7.00698 60.5025Z" fill="#FFEBB7"/>
<path d="M40.0354 61.3016C50.4696 56.3916 62.4607 56.1253 73.0638 60.5025C73.9252 60.8582 74.8741 60.2549 74.8741 59.3228V15.6914C74.8741 15.18 74.5749 14.7072 74.1078 14.499C63.253 9.66124 50.8135 9.77818 40.0354 14.85V61.3016Z" fill="#FFD788"/>
<path d="M45.1966 52.8749C44.6473 52.8749 44.1381 52.522 43.9655 51.9709C43.7526 51.291 44.1305 50.5665 44.8097 50.3529C46.1152 49.9428 47.4584 49.5924 48.8029 49.3108C49.4985 49.1647 50.184 49.61 50.3301 50.3089C50.4763 51.0063 50.0303 51.6901 49.3321 51.8362C48.0695 52.1009 46.8082 52.4304 45.5834 52.8152C45.4548 52.8554 45.3239 52.8749 45.1966 52.8749Z" fill="#868491"/>
<path d="M69.7128 52.8749C69.5855 52.8749 69.4544 52.8554 69.326 52.8151C64.4571 51.286 59.4104 50.7133 54.331 51.1178C53.6102 51.1694 52.9991 50.6434 52.9425 49.9333C52.887 49.2226 53.4163 48.6013 54.127 48.5447C59.5478 48.1187 64.9158 48.7249 70.0997 50.3529C70.7789 50.5665 71.157 51.291 70.9439 51.9709C70.7712 52.5221 70.2621 52.8749 69.7128 52.8749Z" fill="#868491"/>
<path d="M69.7127 47.6983C69.5854 47.6983 69.4543 47.6788 69.3259 47.6385C61.5588 45.199 53.3506 45.199 45.5835 47.6385C44.9006 47.852 44.1772 47.4735 43.9656 46.7943C43.7527 46.1144 44.1306 45.3899 44.8098 45.1764C53.0835 42.5782 61.8259 42.5782 70.0996 45.1764C70.7788 45.3899 71.1569 46.1144 70.9438 46.7943C70.7711 47.3456 70.2621 47.6983 69.7127 47.6983Z" fill="#868491"/>
<path d="M45.1966 42.5522C44.6473 42.5522 44.1381 42.1993 43.9655 41.6482C43.7526 40.9683 44.1305 40.2438 44.8097 40.0303C49.5589 38.5396 54.4871 37.9051 59.4518 38.1383C60.1624 38.1724 60.7131 38.7766 60.679 39.4885C60.6463 40.2017 60.0515 40.7461 59.3282 40.7164C54.6697 40.4966 50.0415 41.0925 45.5832 42.4925C45.4548 42.5327 45.3239 42.5522 45.1966 42.5522Z" fill="#868491"/>
<path d="M69.7128 42.5522C69.5856 42.5522 69.4544 42.5327 69.3261 42.4924C67.6956 41.9801 66.0133 41.5693 64.3261 41.272C63.6241 41.1479 63.1554 40.4788 63.2803 39.7769C63.4038 39.0756 64.0741 38.6062 64.7748 38.7304C66.5717 39.0474 68.3622 39.4846 70.0999 40.0303C70.7791 40.2438 71.1572 40.9683 70.9441 41.6482C70.7712 42.1995 70.2622 42.5522 69.7128 42.5522Z" fill="#868491"/>
<path d="M69.7127 37.3757C69.5854 37.3757 69.4543 37.3562 69.3259 37.3159C61.5588 34.8764 53.3506 34.8764 45.5835 37.3159C44.9006 37.5282 44.1772 37.1503 43.9656 36.4717C43.7527 35.7919 44.1306 35.0674 44.8098 34.8538C53.0835 32.2556 61.8259 32.2556 70.0996 34.8538C70.7788 35.0674 71.1569 35.7919 70.9438 36.4717C70.7711 37.023 70.2621 37.3757 69.7127 37.3757Z" fill="#868491"/>
<path d="M45.1966 32.2146C44.6473 32.2146 44.1381 31.8617 43.9655 31.3106C43.7526 30.6308 44.1305 29.9062 44.8097 29.6927C47.4055 28.8774 50.092 28.3117 52.7973 28.0117C53.5155 27.9254 54.1444 28.4446 54.2224 29.1514C54.3005 29.8596 53.7902 30.4979 53.0821 30.5759C50.5431 30.8582 48.019 31.3893 45.5834 32.1548C45.4548 32.1949 45.3239 32.2146 45.1966 32.2146Z" fill="#868491"/>
<path d="M69.7126 32.2147C69.5854 32.2147 69.4542 32.1951 69.3258 32.1548C65.683 31.01 61.9002 30.3988 58.0809 30.339C57.3676 30.3277 56.7994 29.7411 56.8107 29.0285C56.822 28.3166 57.4446 27.7167 58.1212 27.7584C62.1888 27.8226 66.2197 28.4735 70.0996 29.6926C70.7787 29.9061 71.1568 30.6306 70.9437 31.3105C70.7697 31.8617 70.262 32.2147 69.7126 32.2147Z" fill="#868491"/>
<path d="M45.1966 27.0684C44.6473 27.0684 44.1381 26.7155 43.9655 26.1643C43.7526 25.4845 44.1305 24.76 44.8097 24.5464C50.4321 22.7805 56.2511 22.2134 62.113 22.8655C62.8213 22.9435 63.3316 23.5818 63.2534 24.29C63.1753 24.9976 62.5503 25.5218 61.8282 25.4297C56.3292 24.8198 50.8618 25.3497 45.5832 27.0085C45.4548 27.0489 45.3239 27.0684 45.1966 27.0684Z" fill="#868491"/>
<path d="M69.7128 27.0683C69.5855 27.0683 69.4544 27.0488 69.326 27.0085C68.507 26.7507 67.6665 26.517 66.826 26.3123C66.1343 26.1435 65.7096 25.4454 65.8785 24.753C66.0473 24.0605 66.7404 23.6372 67.4385 23.8047C68.3318 24.0228 69.2265 24.2722 70.0997 24.5464C70.7789 24.7599 71.157 25.4844 70.9439 26.1643C70.7712 26.7155 70.2622 27.0683 69.7128 27.0683Z" fill="#868491"/>
<path d="M45.1966 21.892C44.6473 21.892 44.1381 21.5387 43.9655 20.9874C43.7526 20.3069 44.1305 19.583 44.811 19.3701C45.6981 19.0916 46.5927 18.8427 47.471 18.6292C48.159 18.4596 48.8608 18.8856 49.0297 19.578C49.1985 20.2704 48.7726 20.9685 48.0808 21.1367C47.2568 21.337 46.4163 21.5707 45.5821 21.8322C45.4535 21.8724 45.3239 21.892 45.1966 21.892Z" fill="#868491"/>
<path d="M69.7129 21.8921C69.5856 21.8921 69.4545 21.8726 69.3261 21.8323C64.0464 20.1734 58.5814 19.6442 53.0811 20.2534C52.3679 20.3403 51.734 19.8205 51.656 19.1137C51.5779 18.4055 52.0882 17.7673 52.7963 17.6892C58.6556 17.0371 64.4759 17.6042 70.0996 19.3702C70.7788 19.5837 71.1569 20.3082 70.9438 20.9881C70.7713 21.5392 70.2622 21.8921 69.7129 21.8921Z" fill="#868491"/>
<path d="M10.3579 52.8749C9.80852 52.8749 9.29948 52.522 9.12674 51.9709C8.91384 51.291 9.29174 50.5665 9.97093 50.3529C11.2764 49.9428 12.6196 49.5924 13.9642 49.3108C14.6609 49.1647 15.3453 49.61 15.4914 50.3089C15.6375 51.0063 15.1916 51.6901 14.4934 51.8362C13.2308 52.1009 11.9695 52.4304 10.7446 52.8152C10.6161 52.8554 10.4851 52.8749 10.3579 52.8749Z" fill="#B4B6BC"/>
<path d="M34.8739 52.8749C34.7467 52.8749 34.6155 52.8554 34.4871 52.8151C29.6194 51.286 24.5715 50.7133 19.4921 51.1178C18.7613 51.1694 18.1602 50.6434 18.1036 49.9333C18.0481 49.2226 18.5775 48.6013 19.2881 48.5447C24.7089 48.1187 30.0757 48.7249 35.2609 50.3529C35.9401 50.5665 36.3181 51.291 36.1051 51.9709C35.9323 52.5221 35.4233 52.8749 34.8739 52.8749Z" fill="#B4B6BC"/>
<path d="M34.8741 47.6983C34.7468 47.6983 34.6157 47.6788 34.4873 47.6385C26.7202 45.199 18.512 45.199 10.7449 47.6385C10.0594 47.852 9.3386 47.4735 9.12699 46.7943C8.91408 46.1144 9.29198 45.3899 9.97118 45.1764C18.2449 42.5782 26.9873 42.5782 35.261 45.1764C35.9402 45.3899 36.3183 46.1144 36.1052 46.7943C35.9325 47.3456 35.4234 47.6983 34.8741 47.6983Z" fill="#B4B6BC"/>
<path d="M10.3579 42.5522C9.80852 42.5522 9.29948 42.1993 9.12674 41.6482C8.91384 40.9683 9.29174 40.2438 9.97094 40.0303C14.7201 38.5396 19.6521 37.9051 24.613 38.1383C25.3237 38.1724 25.8743 38.7766 25.8403 39.4885C25.8063 40.2017 25.2051 40.7461 24.4895 40.7164C19.8297 40.4966 15.2027 41.0925 10.7445 42.4925C10.6161 42.5327 10.4851 42.5522 10.3579 42.5522Z" fill="#B4B6BC"/>
<path d="M34.874 42.5522C34.7467 42.5522 34.6156 42.5327 34.4872 42.4924C32.8567 41.9801 31.1745 41.5693 29.4872 41.272C28.7853 41.1479 28.3166 40.4788 28.4414 39.7769C28.5637 39.0756 29.2366 38.6062 29.9359 38.7304C31.7328 39.0474 33.5233 39.4846 35.2611 40.0303C35.9403 40.2438 36.3183 40.9683 36.1053 41.6482C35.9324 42.1995 35.4233 42.5522 34.874 42.5522Z" fill="#B4B6BC"/>
<path d="M10.3579 37.3758C9.80852 37.3758 9.29948 37.0228 9.12674 36.4717C8.91384 35.7919 9.29174 35.0674 9.97093 34.8538C17.3059 32.5511 25.1322 32.2946 32.5982 34.1128C33.2913 34.2817 33.7159 34.9798 33.5471 35.6722C33.3782 36.364 32.6764 36.7854 31.9884 36.6204C24.9772 34.9111 17.6309 35.1537 10.7446 37.3161C10.6161 37.3562 10.4851 37.3758 10.3579 37.3758Z" fill="#B4B6BC"/>
<path d="M10.3579 32.2146C9.80852 32.2146 9.29948 31.8617 9.12674 31.3106C8.91384 30.6308 9.29174 29.9062 9.97093 29.6927C12.5667 28.8774 15.2532 28.3117 17.9585 28.0117C18.6705 27.9254 19.3056 28.4446 19.3837 29.1514C19.4617 29.8596 18.9514 30.4979 18.2434 30.5759C15.7043 30.8582 13.1803 31.3893 10.7446 32.1548C10.6161 32.1949 10.4851 32.2146 10.3579 32.2146Z" fill="#B4B6BC"/>
<path d="M32.2945 31.4956C32.1937 31.4956 32.0904 31.4837 31.9884 31.459C29.1281 30.7622 26.1845 30.3848 23.2421 30.3388C22.5289 30.3275 21.9607 29.7409 21.972 29.0283C21.9833 28.3164 22.5402 27.7166 23.2825 27.7582C26.4175 27.808 29.5513 28.2093 32.5983 28.9514C33.2913 29.1203 33.716 29.8183 33.5471 30.5108C33.4033 31.1006 32.8754 31.4956 32.2945 31.4956Z" fill="#B4B6BC"/>
<path d="M10.3579 27.0684C9.80852 27.0684 9.29948 26.7155 9.12674 26.1643C8.91384 25.4845 9.29174 24.76 9.97094 24.5464C15.5946 22.7805 21.4137 22.2134 27.2743 22.8655C27.9826 22.9435 28.4929 23.5818 28.4147 24.29C28.3366 24.9976 27.7064 25.5218 26.9895 25.4297C21.4905 24.8198 16.023 25.3497 10.7445 27.0085C10.6161 27.0489 10.4851 27.0684 10.3579 27.0684Z" fill="#B4B6BC"/>
<path d="M10.3579 21.892C9.80851 21.892 9.29947 21.5387 9.12673 20.9874C8.91383 20.3069 9.29173 19.583 9.97221 19.3701C10.8593 19.0916 11.754 18.8427 12.6322 18.6292C13.319 18.4596 14.022 18.8856 14.1909 19.578C14.3598 20.2704 13.9338 20.9685 13.242 21.1367C12.418 21.337 11.5775 21.5707 10.7433 21.8322C10.6148 21.8724 10.4851 21.892 10.3579 21.892Z" fill="#B4B6BC"/>
<path d="M32.2948 21.1725C32.194 21.1725 32.0906 21.1606 31.9887 21.1359C27.4788 20.0377 22.8543 19.7422 18.2424 20.2532C17.5341 20.3401 16.8953 19.8215 16.8172 19.1135C16.7391 18.4052 17.2495 17.767 17.9575 17.689C22.868 17.142 27.7963 17.4596 32.5984 18.6283C33.2914 18.7972 33.7161 19.4952 33.5472 20.1877C33.4035 20.7773 32.8756 21.1725 32.2948 21.1725Z" fill="#B4B6BC"/>
<path d="M32.2933 34.849C32.2935 35.3641 32.8677 35.6716 33.2964 35.3858L36.1643 33.4738L39.0322 35.3858C39.4609 35.6716 40.0353 35.3643 40.0353 34.849V14.957C40.0353 14.4474 39.738 13.9769 39.2722 13.7698C37.263 12.8762 35.1982 12.1596 33.1009 11.6056C32.6917 11.4975 32.2896 11.814 32.2898 12.2372L32.2933 34.849Z" fill="#5D647F"/>
</svg>
