<svg width="80" height="80" viewBox="0 0 80 80" fill="none" xmlns="http://www.w3.org/2000/svg">
<g clip-path="url(#clip0_3_870)">
<path d="M76.3226 40.0028L79.8324 30.8484C80.2173 29.8385 79.9174 28.6936 79.0724 28.0086L71.4629 21.8391L69.923 12.1547C69.7531 11.0848 68.9131 10.2498 67.8432 10.0799L58.1588 8.53996L51.9943 0.925476C51.3143 0.0805338 50.1444 -0.219446 49.1595 0.165528L40.0001 3.68029L30.8457 0.170528C29.8308 -0.219446 28.6959 0.0905331 28.0109 0.930476L21.8413 8.54496L12.157 10.0849C11.0921 10.2548 10.2521 11.0948 10.0821 12.1597L8.54223 21.844L0.927753 28.0136C0.0878101 28.6936 -0.217169 29.8385 0.167805 30.8484L3.67756 40.0028L0.167805 49.1572C-0.222169 50.1671 0.0878101 51.312 0.927753 51.992L8.54223 58.1566L10.0821 67.8409C10.2521 68.9108 11.0871 69.7508 12.157 69.9208L21.8413 71.4607L28.0109 79.0701C28.6959 79.9201 29.8408 80.2201 30.8507 79.8301L40.0001 76.3253L49.1545 79.8351C49.4444 79.9451 49.7444 80.0001 50.0494 80.0001C50.7844 80.0001 51.5093 79.6751 51.9943 79.0701L58.1588 71.4607L67.8432 69.9208C68.9131 69.7508 69.7531 68.9108 69.923 67.8409L71.4629 58.1566L79.0724 51.992C79.9174 51.307 80.2173 50.1671 79.8324 49.1572L76.3226 40.0028Z" fill="#F44336"/>
<path d="M32.5013 35.0037C28.3666 35.0037 25.0018 31.639 25.0018 27.5042C25.0018 23.3695 28.3666 20.0048 32.5013 20.0048C36.636 20.0048 40.0008 23.3695 40.0008 27.5042C40.0008 31.639 36.636 35.0037 32.5013 35.0037ZM32.5013 25.0044C31.1214 25.0044 30.0015 26.1243 30.0015 27.5042C30.0015 28.8842 31.1214 30.0041 32.5013 30.0041C33.8812 30.0041 35.0011 28.8842 35.0011 27.5042C35.0011 26.1243 33.8812 25.0044 32.5013 25.0044Z" fill="#FAFAFA"/>
<path d="M47.5002 60.0013C43.3655 60.0013 40.0007 56.6366 40.0007 52.5018C40.0007 48.3671 43.3655 45.0023 47.5002 45.0023C51.6349 45.0023 54.9997 48.3671 54.9997 52.5018C54.9997 56.6366 51.6349 60.0013 47.5002 60.0013ZM47.5002 50.002C46.1253 50.002 45.0004 51.1269 45.0004 52.5018C45.0004 53.8767 46.1253 55.0017 47.5002 55.0017C48.8751 55.0017 50.0001 53.8767 50.0001 52.5018C50.0001 51.1269 48.8751 50.002 47.5002 50.002Z" fill="#FAFAFA"/>
<path d="M27.5024 60.0014C26.9974 60.0014 26.4924 59.8514 26.0525 59.5364C24.9275 58.7315 24.6676 57.1716 25.4725 56.0466L50.4708 21.049C51.2757 19.9241 52.8356 19.6641 53.9605 20.4691C55.0855 21.269 55.3404 22.8339 54.5405 23.9538L29.5422 58.9515C29.0473 59.6364 28.2823 60.0014 27.5024 60.0014Z" fill="#FAFAFA"/>
</g>
<defs>
<clipPath id="clip0_3_870">
<rect width="80" height="80" fill="white"/>
</clipPath>
</defs>
</svg>
