<svg width="50" height="50" viewBox="0 0 50 50" fill="none" xmlns="http://www.w3.org/2000/svg">
<g clip-path="url(#clip0_3_857)">
<path d="M40.5796 25.3515L35.8335 23.6229C35.687 23.5644 35.5112 23.5351 35.3355 23.5351H4.9253C4.10488 23.5351 3.46045 24.1795 3.46045 24.9999V45.6054C3.46045 48.0369 5.42325 49.9999 7.85499 49.9999H37.1519C39.5837 49.9999 41.5465 48.0369 41.5465 45.6054V26.7283C41.5465 26.1132 41.1655 25.5566 40.5796 25.3515Z" fill="#FC1A40"/>
<path d="M41.5464 26.7283V45.6054C41.5464 48.0369 39.5836 49.9999 37.1519 49.9999H22.5034V23.5351H35.3355C35.5113 23.5351 35.687 23.5644 35.8334 23.6229L40.5795 25.3515C41.1655 25.5566 41.5464 26.1132 41.5464 26.7283Z" fill="#C60034"/>
<path d="M41.0191 9.54958C40.5211 7.52809 39.0269 5.94615 37.0054 5.30152C35.0132 4.68619 32.8744 5.12574 31.3218 6.5319L27.9232 9.52028L27.2495 5.03795C26.9272 2.98716 25.6089 1.25855 23.6461 0.438331C23.2652 0.291749 22.8844 0.174561 22.5035 0.115967C20.8922 -0.206299 19.2222 0.145264 17.8745 1.14146C16.0874 2.43052 15.1793 4.5985 15.4721 6.76637C15.7945 8.93434 17.2593 10.7801 19.3393 11.5125L22.5035 12.6551L26.4 14.0906C26.4293 14.0906 26.4293 14.0906 26.4293 14.0906L33.1969 16.5807C33.8706 16.8152 34.5737 16.9325 35.2476 16.9325C36.6833 16.9325 38.0895 16.405 39.2027 15.409C40.8433 13.9441 41.5464 11.6882 41.0191 9.54958Z" fill="#FE9923"/>
<path d="M39.2027 15.409C38.0894 16.405 36.6831 16.9325 35.2475 16.9325C34.5737 16.9325 33.8706 16.8153 33.1968 16.5808L26.4292 14.0906C26.4292 14.0906 26.4292 14.0906 26.3999 14.0906L22.5034 12.6551V0.115906C22.8843 0.174597 23.2651 0.291687 23.646 0.43827C25.6088 1.25849 26.9273 2.9871 27.2494 5.03789L27.9232 9.52022L31.3217 6.53184C32.8743 5.12568 35.0131 4.68613 37.0053 5.30146C39.0268 5.94609 40.5209 7.52803 41.019 9.54952C41.5464 11.6882 40.8433 13.9442 39.2027 15.409Z" fill="#FE8821"/>
<path d="M46.5563 22.8611L44.5641 28.3689C44.3296 28.9549 43.773 29.3064 43.187 29.3064C43.0112 29.3064 42.8354 29.2771 42.6891 29.2186L27.5424 23.7108L26.1656 19.1698L22.5035 19.99L19.2809 20.7224L4.1343 15.2146C3.37258 14.9217 2.99182 14.072 3.25539 13.3396L5.27688 7.83198C5.65774 6.7187 6.47815 5.8396 7.53284 5.34165C8.58753 4.8437 9.78861 4.785 10.9019 5.19516L22.5036 9.41392L23.2947 9.70679C23.2947 9.70679 26.4587 15.4491 26.5466 15.4491C26.6053 15.4491 27.865 14.746 29.0955 14.072C30.3257 13.3982 31.5562 12.6952 31.5562 12.6952L43.9194 17.2068C45.0327 17.617 45.9116 18.4374 46.4096 19.4921C46.9078 20.5466 46.9663 21.7479 46.5563 22.8611Z" fill="#FF3E75"/>
<path d="M46.5562 22.8611L44.564 28.3689C44.3295 28.9549 43.7729 29.3064 43.187 29.3064C43.0112 29.3064 42.8354 29.2771 42.689 29.2187L27.5424 23.7108L26.1655 19.1698L22.5034 19.99V9.41394L23.2945 9.70681C23.2945 9.70681 26.4585 15.4491 26.5465 15.4491C26.6052 15.4491 27.8649 14.746 29.0953 14.0721C30.3256 13.3982 31.5562 12.6952 31.5562 12.6952L43.9194 17.2068C45.0327 17.617 45.9116 18.4374 46.4095 19.4921C46.9078 20.5467 46.9663 21.7479 46.5562 22.8611Z" fill="#FC1A40"/>
<path d="M18.1089 23.5352V50.0001H26.898V23.5352H18.1089Z" fill="#FCBF29"/>
<path d="M23.2944 9.70691L22.5033 11.8749L19.2808 20.7227L22.5033 21.8946L26.1654 23.213L27.5423 23.7109L31.5562 12.6953L23.2944 9.70691Z" fill="#FCBF29"/>
<path d="M26.8984 23.5352H22.5039V50.0001H26.8984V23.5352Z" fill="#FE9923"/>
<path d="M31.5562 12.6953L27.5424 23.7109L26.1655 23.2129L22.5034 21.8945V11.8749L23.2944 9.70691L31.5562 12.6953Z" fill="#FE9923"/>
</g>
<defs>
<clipPath id="clip0_3_857">
<rect width="50" height="50" fill="white"/>
</clipPath>
</defs>
</svg>
